<svg xmlns="http://www.w3.org/2000/svg" width="64" height="64" viewBox="0 0 64 64"><rect x="1" y="1" width="62" height="62" rx="9" fill="#ffffff"/><rect x="3.5" y="3.5" width="57" height="57" rx="7" fill="#111111"/><path d="M15.54 44.93 25.79 21.75 27.31 24.3H13.62L16.23 21.54V28.44H11V19.5H31.38V23.32L21.94 44.93ZM33.78 44.93V41.12L43.59 31.85Q44.75 30.8 45.3 29.97Q45.84 29.13 46.04 28.44Q46.24 27.75 46.24 27.17Q46.24 25.64 45.21 24.82Q44.17 24.01 42.17 24.01Q40.57 24.01 39.21 24.62Q37.85 25.24 36.9 26.55L32.62 23.79Q34.07 21.61 36.69 20.34Q39.3 19.07 42.72 19.07Q45.55 19.07 47.68 19.99Q49.8 20.92 50.98 22.59Q52.16 24.26 52.16 26.59Q52.16 27.82 51.86 29.04Q51.55 30.26 50.62 31.6Q49.69 32.94 47.91 34.62L39.78 42.28L38.65 40.14H53V44.93Z" fill="#ffffff"/></svg>
