<?xml version="1.0" encoding="UTF-8"?>
<svg xmlns="http://www.w3.org/2000/svg" width="512" height="512" viewBox="0 0 512 512"
     role="img" aria-labelledby="title desc">
  <title id="title">Library</title>
  <desc id="desc">Stone-and-timber reading hall with glowing windows, skylight, shelf bay with book wheel, and a cart of tomes.</desc>
  <!-- Native vector artwork only: no embedded or linked raster content. -->

  <defs>
    <pattern id="roofHatch" width="12" height="12" patternUnits="userSpaceOnUse">
      <path d="M2 0 V12 M8 0 V12" fill="none" stroke="#010206" stroke-width="0.75" opacity="0.17"/>
    </pattern>
    <pattern id="leanHatch" width="10" height="10" patternUnits="userSpaceOnUse">
      <path d="M2 0 V10" fill="none" stroke="#010206" stroke-width="0.65" opacity="0.18"/>
    </pattern>
    <pattern id="stoneHatch" width="16" height="13" patternUnits="userSpaceOnUse">
      <path d="M0 6 H16 M5 0 V6 M12 6 V13" fill="none" stroke="#010206" stroke-width="0.55" opacity="0.16"/>
    </pattern>
    <pattern id="shingleHatch" width="14" height="9" patternUnits="userSpaceOnUse">
      <path d="M0 8 H14 M0 4 Q3.5 8 7 4 Q10.5 8 14 4" fill="none" stroke="#010206" stroke-width="0.6" opacity="0.2"/>
    </pattern>
    <pattern id="logHatch" width="9" height="9" patternUnits="userSpaceOnUse">
      <path d="M4.5 0 V9" fill="none" stroke="#010206" stroke-width="0.7" opacity="0.2"/>
    </pattern>
    <pattern id="plankHatch" width="64" height="22" patternUnits="userSpaceOnUse">
      <path d="M0 0.5 H64 M0 11.5 H64 M20 0 V11 M50 11 V22" fill="none" stroke="#010206" stroke-width="0.8" opacity="0.22"/>
    </pattern>
    <pattern id="flagHatch" width="48" height="40" patternUnits="userSpaceOnUse">
      <path d="M0 0.5 H48 M0 20.5 H48 M16 0 V20 M40 20 V40" fill="none" stroke="#010206" stroke-width="0.8" opacity="0.2"/>
    </pattern>
    <pattern id="waterHatch" width="22" height="10" patternUnits="userSpaceOnUse">
      <path d="M2 5 Q7 1 12 5 T22 5" fill="none" stroke="#A3C9CC" stroke-width="1.1" opacity="0.7"/>
    </pattern>
  </defs>

  <g id="building" stroke="#010206" stroke-linecap="round" stroke-linejoin="round">

    <!-- Open reading bay on the right: dark interior, timber posts, shelves of books. -->

    <path d="M316 172 H452 V216 H316 Z" fill="#A8B5B2" stroke="none"/>
    <path d="M316 216 H452 V260 H316 Z" fill="#8A9A97" stroke="none"/>
    <path d="M316 172 H452 V260 H316 Z" fill="url(#shingleHatch)" stroke="none"/>
    <path d="M316 172 H452 V260 H316 Z" fill="none" stroke-width="2.8"/>
    <path d="M316 216 C350 214, 418 218, 452 216" fill="none" stroke-width="3.1"/>

    <path d="M324 260 H446 V366 H324 Z" fill="#33292A" stroke-width="2"/>
    <path d="M324 260 H446 V366 H324 Z" fill="url(#logHatch)" stroke="none" opacity="0.6"/>
    <g fill="#9F7D68" stroke-width="1.6">
      <path d="M330 292 H440 V298 H330 Z"/><path d="M330 326 H440 V332 H330 Z"/><path d="M330 358 H440 V364 H330 Z"/>
    </g>
    <g stroke-width="1.1">
      <path d="M334 292 V278 H339 V292 Z" fill="#9C3F3A"/>
      <path d="M339 292 V271 H347 V292 Z" fill="#3F6C8A"/>
      <path d="M347 292 V273 H353 V292 Z" fill="#5C7F4F"/>
      <path d="M353 292 V275 H362 V292 Z" fill="#C8A25B"/>
      <path d="M362 292 V277 H369 V292 Z" fill="#6D4F82"/>
      <path d="M369 292 V270 H374 V292 Z" fill="#8A5A3A"/>
      <path d="M374 292 V272 H382 V292 Z" fill="#3E4F5F"/>
      <path d="M382 292 V274 H388 V292 Z" fill="#9C3F3A"/>
      <path d="M388 292 V276 H397 V292 Z" fill="#3F6C8A"/>
      <path d="M397 292 V278 H404 V292 Z" fill="#5C7F4F"/>
      <path d="M404 292 V271 H409 V292 Z" fill="#C8A25B"/>
      <path d="M409 292 V273 H417 V292 Z" fill="#6D4F82"/>
      <path d="M417 292 V275 H423 V292 Z" fill="#8A5A3A"/>
      <path d="M423 292 V277 H432 V292 Z" fill="#3E4F5F"/>
      <path d="M334 326 V309 H343 V326 Z" fill="#C8A25B"/>
      <path d="M343 326 V311 H350 V326 Z" fill="#6D4F82"/>
      <path d="M350 326 V304 H355 V326 Z" fill="#8A5A3A"/>
      <path d="M355 326 V306 H363 V326 Z" fill="#3E4F5F"/>
      <path d="M363 326 V308 H369 V326 Z" fill="#9C3F3A"/>
      <path d="M369 326 V310 H378 V326 Z" fill="#3F6C8A"/>
      <path d="M378 326 V312 H385 V326 Z" fill="#5C7F4F"/>
      <path d="M385 326 V305 H390 V326 Z" fill="#C8A25B"/>
      <path d="M390 326 V307 H398 V326 Z" fill="#6D4F82"/>
      <path d="M398 326 V309 H404 V326 Z" fill="#8A5A3A"/>
      <path d="M404 326 V311 H413 V326 Z" fill="#3E4F5F"/>
      <path d="M413 326 V304 H420 V326 Z" fill="#9C3F3A"/>
      <path d="M420 326 V306 H425 V326 Z" fill="#3F6C8A"/>
      <path d="M425 326 V308 H433 V326 Z" fill="#5C7F4F"/>
      <path d="M334 358 V336 H339 V358 Z" fill="#8A5A3A"/>
      <path d="M339 358 V338 H347 V358 Z" fill="#3E4F5F"/>
      <path d="M347 358 V340 H353 V358 Z" fill="#9C3F3A"/>
      <path d="M353 358 V342 H362 V358 Z" fill="#3F6C8A"/>
      <path d="M362 358 V344 H369 V358 Z" fill="#5C7F4F"/>
      <path d="M369 358 V337 H374 V358 Z" fill="#C8A25B"/>
      <path d="M374 358 V339 H382 V358 Z" fill="#6D4F82"/>
      <path d="M382 358 V341 H388 V358 Z" fill="#8A5A3A"/>
      <path d="M388 358 V343 H397 V358 Z" fill="#3E4F5F"/>
      <path d="M397 358 V336 H404 V358 Z" fill="#9C3F3A"/>
      <path d="M404 358 V338 H409 V358 Z" fill="#3F6C8A"/>
      <path d="M409 358 V340 H417 V358 Z" fill="#5C7F4F"/>
      <path d="M417 358 V342 H423 V358 Z" fill="#C8A25B"/>
      <path d="M423 358 V344 H432 V358 Z" fill="#6D4F82"/>
    </g>
    <!-- Book wheel lectern: a turning frame of open tomes on a trestle. -->
    <path d="M356 366 L366 338 L376 366 M366 338 V348" fill="none" stroke="#4B352B" stroke-width="3"/>
    <circle cx="366" cy="326" r="19" fill="#9F7D68" stroke-width="2"/>
    <circle cx="366" cy="326" r="19" fill="url(#logHatch)" stroke="none"/>
    <path d="M366 307 V345 M347 326 H385 M352.5 312.5 L379.5 339.5 M379.5 312.5 L352.5 339.5" fill="none" stroke-width="1.5" opacity="0.8"/>
    <g fill="#EDE3CC" stroke-width="1.4">
      <path d="M358 300 H374 V310 H358 Z"/><path d="M378 318 H388 V334 H378 Z"/><path d="M344 318 H354 V334 H344 Z"/><path d="M358 342 H374 V352 H358 Z"/>
    </g>
    <path d="M366 300 V310 M383 318 V334 M349 318 V334 M366 342 V352" fill="none" stroke-width="1" opacity="0.7"/>
    <circle cx="366" cy="326" r="4.5" fill="#745846" stroke-width="1.6"/>
    <!-- Ladder against the shelves. -->
    <path d="M414 270 L424 366 M430 270 L440 366" fill="none" stroke="#C7A06E" stroke-width="3.2"/>
    <path d="M416 290 H432 M418 312 H434 M420 334 H436 M422 354 H438" fill="none" stroke="#C7A06E" stroke-width="2.6"/>
    <g fill="#8F6F52" stroke-width="2">
      <path d="M318 254 H332 V368 H318 Z"/><path d="M440 254 H454 V368 H440 Z"/>
    </g>
    <path d="M318 254 H454 V268 H318 Z" fill="#745846" stroke-width="2"/>
    <path d="M324 366 H450 V374 H324 Z" fill="#A8A59B" stroke-width="1.8"/>
    <path d="M96 56 H132 V136 H96 Z" fill="#8E8B83" stroke="none"/>
    <path d="M96 56 H132 V136 H96 Z" fill="url(#stoneHatch)" stroke="none"/>
    <path d="M96 56 H132 V136 H96 Z" fill="none" stroke-width="2.2"/>
    <path d="M91 48 H137 V60 H91 Z" fill="#A8A59B" stroke-width="2"/>
    <path d="M99 51 H129 V57 H99 Z" fill="#26211f" stroke="none"/>
    <!-- Main hall roof: slate, a stone chimney behind the ridge, a glazed skylight on the slope. -->

    <path d="M66 90 H334 V161 H66 Z" fill="#A8B5B2" stroke="none"/>
    <path d="M66 161 H334 V232 H66 Z" fill="#8A9A97" stroke="none"/>
    <path d="M66 90 H334 V232 H66 Z" fill="url(#shingleHatch)" stroke="none"/>
    <path d="M66 90 H334 V232 H66 Z" fill="none" stroke-width="2.8"/>
    <path d="M66 161 C133 159, 267 163, 334 161" fill="none" stroke-width="3.1"/>

    <path d="M150 112 H236 L242 164 H144 Z" fill="#745846" stroke-width="2.2"/>
    <path d="M158 120 H228 L232 156 H154 Z" fill="#CFE8E4" stroke-width="1.6"/>
    <path d="M158 120 H228 L232 156 H154 Z" fill="none" stroke-width="1.1"/>
    <path d="M193 120 V156 M156 138 H230" fill="none" stroke-width="1.6"/>
    <path d="M163 124 L178 124 L168 152 L160 152 Z" fill="#F5FBFA" stroke="none" opacity="0.8"/>
    <path d="M142 170 H244 V178 H142 Z" fill="#5F4434" stroke-width="1.6"/>
    <!-- Weathervane: a little open book over the gable end. -->
    <path d="M300 92 V66" fill="none" stroke="#4B352B" stroke-width="2.4"/>
    <path d="M300 68 Q310 62 320 68 V80 Q310 74 300 80 Z" fill="#EDE3CC" stroke-width="1.5"/>
    <path d="M310 64 V77" fill="none" stroke-width="1"/>
    <!-- Hall front: stone below a timber eave beam, string course, tall glowing windows. -->

    <path d="M72 232 H332 L328 366 H76 Z" fill="#8E8B83" stroke="none"/>
    <path d="M72 232 H332 L328 366 H76 Z" fill="url(#stoneHatch)" stroke="none"/>
    <path d="M72 232 H332 L328 366 H76 Z" fill="none" stroke-width="2.2"/>

    <path d="M66 226 H340 V240 H66 Z" fill="#5F4434" stroke-width="2.2"/>
    <path d="M66 226 H340 V240 H66 Z" fill="url(#logHatch)" stroke="none"/>
    <path d="M74 248 V366 M330 248 V366" fill="none" stroke="#5F4434" stroke-width="6"/>
    <path d="M72 338 H332 L331 346 H73 Z" fill="#6F6D68" stroke-width="1.5"/>
    <g stroke-width="1.8">
      <path d="M91 332 V284 Q91 260 107 260 Q123 260 123 284 V332 Z" fill="#745846"/>
      <path d="M131 332 V284 Q131 260 147 260 Q163 260 163 284 V332 Z" fill="#745846"/>
      <path d="M245 332 V284 Q245 260 261 260 Q277 260 277 284 V332 Z" fill="#745846"/>
      <path d="M285 332 V284 Q285 260 301 260 Q317 260 317 284 V332 Z" fill="#745846"/>
    </g>
    <g stroke-width="1.3" fill="#F0CB6A">
      <path d="M96 332 V285 Q96 266 107 266 Q118 266 118 285 V332 Z"/>
      <path d="M136 332 V285 Q136 266 147 266 Q158 266 158 285 V332 Z"/>
      <path d="M250 332 V285 Q250 266 261 266 Q272 266 272 285 V332 Z"/>
      <path d="M290 332 V285 Q290 266 301 266 Q312 266 312 285 V332 Z"/>
    </g>
    <g fill="#FAE9AE" stroke="none">
      <path d="M96 332 V285 Q96 266 107 266 V332 Z"/><path d="M136 332 V285 Q136 266 147 266 V332 Z"/>
      <path d="M250 332 V285 Q250 266 261 266 V332 Z"/><path d="M290 332 V285 Q290 266 301 266 V332 Z"/>
    </g>
    <g fill="none" stroke-width="1.3">
      <path d="M107 266 V332 M96 296 H118 M96 316 H118"/><path d="M147 266 V332 M136 296 H158 M136 316 H158"/>
      <path d="M261 266 V332 M250 296 H272 M250 316 H272"/><path d="M301 266 V332 M290 296 H312 M290 316 H312"/>
    </g>
    <path d="M87 332 H127 V338 H87 Z M127 332 H167 V338 H127 Z M241 332 H281 V338 H241 Z M281 332 H321 V338 H281 Z" fill="#A8A59B" stroke-width="1.4"/>
    <!-- Double door under a stone arch, with a carved book plaque and steps. -->
    <path d="M176 366 V312 Q176 284 202 284 Q228 284 228 312 V366 Z" fill="#A8A59B" stroke-width="2.2"/>
    <path d="M183 366 V314 Q183 292 202 292 Q221 292 221 314 V366 Z" fill="#745846" stroke-width="1.9"/>
    <path d="M202 292 V366 M184 318 H220 M184 342 H220" fill="none" stroke-width="1.3" opacity="0.8"/>
    <path d="M186 318 H198 M206 318 H218 M186 342 H198 M206 342 H218" fill="none" stroke="#2c2c2c" stroke-width="3" opacity="0.7"/>
    <circle cx="198" cy="332" r="2" fill="#D7C39A" stroke-width="1"/><circle cx="206" cy="332" r="2" fill="#D7C39A" stroke-width="1"/>
    <path d="M202 272 Q212 266 222 270 V250 Q212 246 202 252 Q192 246 182 250 V270 Q192 266 202 272 Z" fill="#EDE3CC" stroke-width="1.5"/>
    <path d="M202 252 V272 M188 256 H198 M188 262 H198 M206 256 H216 M206 262 H216" fill="none" stroke-width="0.9" opacity="0.8"/>
    <path d="M170 366 H234 L242 378 H162 Z" fill="#9A978D" stroke-width="1.8"/>
    <path d="M162 378 H242 L248 388 H156 Z" fill="#85827A" stroke-width="1.8"/>
    <!-- Cart of tomes and scrolls. -->
    <path d="M60 424 L92 410 M60 428 L92 414" fill="none" stroke="#5F4434" stroke-width="3"/>
    <path d="M90 408 H206 L200 428 H96 Z" fill="#876A56" stroke-width="1.9"/>
    <path d="M92 408 H204 V413 H92 Z" fill="#A9856E" stroke-width="1.4"/>
    <path d="M110 414 V426 M130 414 V426 M150 414 V426 M170 414 V426 M190 414 V426" fill="none" stroke-width="1" opacity="0.6"/>
    <g stroke-width="1.2">
      <path d="M98 408 V389 H104 V408 Z" fill="#5C7F4F"/>
      <path d="M104 408 V391 H113 V408 Z" fill="#C8A25B"/>
      <path d="M113 408 V393 H120 V408 Z" fill="#6D4F82"/>
      <path d="M120 408 V386 H125 V408 Z" fill="#8A5A3A"/>
      <path d="M125 408 V388 H133 V408 Z" fill="#3E4F5F"/>
      <path d="M133 408 V390 H139 V408 Z" fill="#9C3F3A"/>
      <path d="M139 408 V392 H148 V408 Z" fill="#3F6C8A"/>
      <path d="M148 408 V394 H155 V408 Z" fill="#5C7F4F"/>
      <path d="M104 394 V374 H112 V394 Z" fill="#3E4F5F"/>
      <path d="M112 394 V376 H118 V394 Z" fill="#9C3F3A"/>
      <path d="M118 394 V378 H127 V394 Z" fill="#3F6C8A"/>
      <path d="M127 394 V380 H134 V394 Z" fill="#5C7F4F"/>
      <path d="M134 394 V373 H139 V394 Z" fill="#C8A25B"/>
      <path d="M139 394 V375 H147 V394 Z" fill="#6D4F82"/>
      <path d="M147 394 V377 H153 V394 Z" fill="#8A5A3A"/>
      <path d="M153 394 V379 H162 V394 Z" fill="#3E4F5F"/>
      <path d="M162 394 V372 H169 V394 Z" fill="#9C3F3A"/>
    </g>
    <path d="M168 408 L196 396" fill="none" stroke="#5F4434" stroke-width="2.6"/>
    <g fill="#EDE3CC" stroke-width="1.4">
      <path d="M160 404 L196 386 L199 392 L163 410 Z"/><path d="M172 402 L198 396 L199 402 L174 408 Z" fill="#D9C79F"/>
    </g>
    <ellipse cx="196" cy="389" rx="3" ry="4" fill="#C8A25B" stroke-width="1.2" transform="rotate(-25 196 389)"/>
    <g fill="#9F7D68" stroke-width="2">
      <circle cx="122" cy="430" r="15"/><circle cx="184" cy="430" r="15"/>
    </g>
    <g fill="#745846" stroke-width="1.5"><circle cx="122" cy="430" r="4.5"/><circle cx="184" cy="430" r="4.5"/></g>
    <path d="M122 415 V445 M107 430 H137 M111.4 419.4 L132.6 440.6 M132.6 419.4 L111.4 440.6 M184 415 V445 M169 430 H199 M173.4 419.4 L194.6 440.6 M194.6 419.4 L173.4 440.6" fill="none" stroke-width="1.2" opacity="0.75"/>
    <!-- Candle lantern on a post. -->
    <path d="M398 438 V382 H414" fill="none" stroke="#4B352B" stroke-width="3.4"/>
    <path d="M414 382 V388" fill="none" stroke-width="1.6"/>
    <circle cx="414" cy="405" r="20" fill="#F7E08F" stroke="none" opacity="0.28"/>
    <path d="M406 390 H422 L424 396 H404 Z" fill="#4D4B47" stroke-width="1.5"/>
    <path d="M405 396 H423 V414 H405 Z" fill="#F0CB6A" stroke-width="1.6"/>
    <path d="M414 396 V414 M405 405 H423" fill="none" stroke-width="1.1"/>
    <path d="M404 414 H424 L421 419 H407 Z" fill="#4D4B47" stroke-width="1.5"/>
    <path d="M414 408 C410 404 413 400 414 398 C416 401 418 404 414 408 Z" fill="#E08A33" stroke="none"/>
    <ellipse cx="398" cy="440" rx="9" ry="3.5" fill="#85827A" stroke-width="1.5"/>

  </g>
</svg>
